<?xml version="1.0" encoding="utf-8"?>
<!-- Generator: Adobe Illustrator 27.5.0, SVG Export Plug-In . SVG Version: 6.00 Build 0)  -->
<svg version="1.1" xmlns="http://www.w3.org/2000/svg" xmlns:xlink="http://www.w3.org/1999/xlink" x="0px" y="0px"
	 viewBox="0 0 750 500" style="enable-background:new 0 0 750 500;" xml:space="preserve">
<g id="BACKGROUND">
	<rect style="fill:#472977;" width="750" height="500"/>
</g>
<g id="OBJECTS">
	<g style="opacity:0.2;">
		<defs>
			<rect id="SVGID_1_" style="opacity:0.2;" width="750" height="500"/>
		</defs>
		<clipPath id="SVGID_00000090253474592005364180000016935640843275030415_">
			<use xlink:href="#SVGID_1_"  style="overflow:visible;"/>
		</clipPath>
		<g style="clip-path:url(#SVGID_00000090253474592005364180000016935640843275030415_);">
			<g>
				<path style="fill:#6D3EC6;" d="M717.55,442.748l-33.286,22.345c-1.318,0.885-1.669,2.67-0.784,3.988
					c0.885,1.318,2.671,1.669,3.989,0.784l33.286-22.345c1.318-0.885,1.669-2.67,0.784-3.988
					C720.654,442.215,718.868,441.863,717.55,442.748z"/>
				<path style="fill:#6D3EC6;" d="M806.96,248.945l-43.147,28.965l-5.492,3.687c-7.314,4.91-17.223,2.961-22.133-4.353v0
					c-4.91-7.314-2.961-17.223,4.353-22.133l5.492-3.687l7.15-4.8c2.611-1.753,3.307-5.291,1.554-7.902l0,0
					c-1.753-2.611-5.291-3.307-7.902-1.554L544.832,372.775c-2.611,1.753-3.307,5.291-1.554,7.902l0,0
					c1.753,2.611,5.291,3.307,7.902,1.554l65.384-43.893l13.077-8.779c7.314-4.91,17.223-2.961,22.133,4.353l0,0
					c4.91,7.314,2.961,17.223-4.353,22.133l-13.078,8.779l-20.794,13.959c-6.874,4.615-8.706,13.928-4.091,20.802l0,0
					c4.615,6.874,13.928,8.706,20.802,4.091l11.683-7.843l6.567-4.409c3.121-2.095,7.349-1.263,9.444,1.857
					c2.095,3.121,1.263,7.349-1.857,9.444l-6.567,4.408l-53.071,35.627c-13.706,9.201-17.358,27.771-8.157,41.477v0
					c9.201,13.706,27.771,17.358,41.477,8.157l1.064-0.715l50.48-33.888l62.25-41.789c1.765-1.185,4.156-0.715,5.341,1.051
					c1.185,1.765,0.714,4.156-1.051,5.341l-14.57,9.781c-1.318,0.885-1.669,2.671-0.784,3.988c0.885,1.318,2.67,1.669,3.988,0.784
					l135.758-91.136c1.318-0.885,1.669-2.671,0.784-3.988c-0.885-1.318-2.67-1.669-3.988-0.784l-68.421,45.932l-9.061,6.083
					c-1.765,1.185-4.156,0.715-5.341-1.05c-1.185-1.765-0.715-4.157,1.051-5.341l9.061-6.083l17.772-11.931
					c13.706-9.201,17.358-27.771,8.157-41.477v0c-9.201-13.706-27.771-17.358-41.477-8.157l-21.305,14.302l-6.261,4.203
					c-3.121,2.095-7.349,1.263-9.444-1.857c-2.095-3.121-1.263-7.349,1.857-9.444l6.262-4.203l71.769-48.179
					c6.874-4.615,8.706-13.928,4.091-20.802l0,0C823.148,246.162,813.834,244.331,806.96,248.945z"/>
			</g>
			<g>
				<path style="fill:#6D3EC6;" d="M67.536,76.131l40.773-27.372c1.615-1.084,2.045-3.271,0.961-4.886
					c-1.084-1.614-3.271-2.045-4.886-0.961L63.611,70.284c-1.615,1.084-2.045,3.271-0.961,4.886
					C63.734,76.784,65.921,77.214,67.536,76.131z"/>
				<path style="fill:#6D3EC6;" d="M-41.986,313.527l52.852-35.48l6.727-4.516c8.959-6.014,21.097-3.627,27.112,5.332l0,0
					c6.014,8.959,3.627,21.097-5.332,27.112l-6.727,4.516l-8.758,5.88c-3.198,2.147-4.051,6.481-1.904,9.679l0,0
					c2.147,3.199,6.481,4.051,9.679,1.904l247.442-166.11c3.198-2.147,4.051-6.481,1.904-9.679v0
					c-2.147-3.198-6.481-4.051-9.679-1.904l-80.091,53.766l-16.019,10.754c-8.959,6.014-21.097,3.627-27.112-5.332l0,0
					c-6.014-8.959-3.627-21.097,5.332-27.112l16.019-10.754l25.471-17.099c8.42-5.653,10.664-17.061,5.011-25.482v0
					c-5.653-8.42-17.061-10.664-25.482-5.011l-14.311,9.607l-8.044,5.4c-3.823,2.566-9.002,1.548-11.568-2.275
					c-2.566-3.823-1.548-9.002,2.275-11.568l8.044-5.4l65.008-43.641c16.789-11.271,21.263-34.018,9.992-50.807l0,0
					c-11.271-16.789-34.018-21.263-50.807-9.992l-1.304,0.875L111.91,57.7l-76.253,51.189c-2.162,1.451-5.091,0.875-6.543-1.287
					c-1.451-2.162-0.875-5.091,1.287-6.543l17.847-11.981c1.614-1.084,2.045-3.271,0.961-4.886
					c-1.084-1.615-3.271-2.045-4.886-0.961l-166.295,111.635c-1.614,1.084-2.045,3.271-0.961,4.886
					c1.084,1.614,3.271,2.045,4.886,0.961l83.811-56.263L-23.137,137c2.162-1.451,5.091-0.875,6.543,1.287
					c1.451,2.162,0.875,5.091-1.287,6.543l-11.099,7.451l-21.77,14.614c-16.789,11.271-21.263,34.018-9.992,50.807h0
					c11.271,16.789,34.018,21.263,50.807,9.992l26.097-17.519l7.67-5.149c3.823-2.566,9.002-1.548,11.568,2.275
					c2.566,3.823,1.548,9.002-2.275,11.568l-7.67,5.149l-87.912,59.016c-8.42,5.653-10.664,17.061-5.011,25.481v0
					C-61.815,316.936-50.407,319.18-41.986,313.527z"/>
			</g>
			<g>
				<path style="fill:#24144C;" d="M340.608,357.2l35.068-23.541c2.729-1.832,3.456-5.53,1.624-8.259
					c-1.832-2.729-5.53-3.457-8.259-1.624l-35.068,23.541c-2.729,1.832-3.456,5.53-1.624,8.259
					C334.181,358.305,337.879,359.032,340.608,357.2z"/>
				<path style="fill:#24144C;" d="M208.412,535.662l-39.12,26.262c-1.509,1.013-1.911,3.057-0.898,4.566
					c1.013,1.509,3.057,1.911,4.566,0.898l39.12-26.262c1.509-1.013,1.911-3.057,0.898-4.566
					C211.965,535.052,209.921,534.649,208.412,535.662z"/>
				<path style="fill:#24144C;" d="M435.992,382.885l-77.524,52.043l-26.888,18.051c-2.763,1.855-6.506,1.118-8.361-1.644
					c-1.855-2.763-1.118-6.506,1.644-8.361l26.889-18.051l4.709-3.161c5.525-3.709,6.998-11.196,3.289-16.721h0
					c-3.709-5.526-11.195-6.998-16.721-3.289l-13.028,8.746l-0.127,0.085l-0.002-0.003c-8.777,5.793-20.599,3.434-26.471-5.314l0,0
					c-5.872-8.747-3.579-20.582,5.107-26.512l-0.002-0.003l0.127-0.085l12.21-8.197c2.729-1.832,3.456-5.53,1.624-8.259
					c-1.832-2.729-5.53-3.456-8.259-1.624l-134.406,90.228c-2.729,1.832-3.457,5.53-1.624,8.259c1.832,2.729,5.53,3.456,8.259,1.624
					l15.836-10.631l18.262-12.26c8.79-5.901,20.7-3.559,26.601,5.231l0,0c5.901,8.79,3.559,20.7-5.231,26.601l-18.263,12.26
					l-56.138,37.686l-52.3,35.11c-5.525,3.709-6.998,11.195-3.288,16.721h0c3.709,5.526,11.196,6.998,16.721,3.289l89.5-60.083
					l4.792-3.217c2.763-1.855,6.506-1.118,8.361,1.644c1.855,2.763,1.118,6.506-1.644,8.361l-4.793,3.217l-3.621,2.431
					c-1.509,1.013-1.911,3.057-0.898,4.566c1.013,1.509,3.057,1.911,4.566,0.898L439.661,388.35
					c1.509-1.013,1.911-3.057,0.898-4.566C439.546,382.275,437.501,381.873,435.992,382.885z"/>
			</g>
			<g>
				<path style="fill:#24144C;" d="M430.542,163.756l-18.559,12.459c-1.444,0.97-1.829,2.927-0.86,4.371s2.927,1.829,4.371,0.86
					l18.559-12.459c1.444-0.97,1.829-2.926,0.86-4.371C433.944,163.171,431.987,162.787,430.542,163.756z"/>
				<path style="fill:#24144C;" d="M500.503,69.31l20.703-13.898c0.799-0.536,1.011-1.618,0.475-2.417
					c-0.536-0.799-1.618-1.011-2.417-0.475l-20.703,13.898c-0.799,0.536-1.011,1.618-0.475,2.417
					C498.623,69.634,499.705,69.846,500.503,69.31z"/>
				<path style="fill:#24144C;" d="M380.063,150.163l41.027-27.542l14.23-9.553c1.462-0.982,3.443-0.592,4.424,0.87
					c0.982,1.462,0.592,3.443-0.87,4.425l-14.23,9.553l-2.492,1.673c-2.924,1.963-3.703,5.925-1.74,8.849v0
					c1.963,2.924,5.925,3.703,8.849,1.74l6.895-4.628l0.067-0.045l0.001,0.002c4.645-3.066,10.901-1.817,14.009,2.812l0,0
					c3.108,4.629,1.894,10.892-2.703,14.031l0.001,0.002l-0.067,0.045l-6.462,4.338c-1.444,0.97-1.829,2.926-0.86,4.371
					c0.97,1.444,2.927,1.829,4.371,0.86l71.13-47.75c1.444-0.97,1.829-2.926,0.86-4.371c-0.97-1.444-2.927-1.829-4.371-0.86
					l-8.381,5.626l-9.665,6.488c-4.652,3.123-10.955,1.883-14.078-2.769v0c-3.123-4.652-1.883-10.955,2.769-14.077l9.665-6.488
					l29.709-19.944l27.678-18.581c2.924-1.963,3.703-5.925,1.74-8.849l0,0c-1.963-2.924-5.925-3.703-8.849-1.74l-47.365,31.797
					l-2.536,1.703c-1.462,0.981-3.443,0.592-4.424-0.87c-0.982-1.462-0.592-3.443,0.87-4.425l2.536-1.703l1.916-1.286
					c0.799-0.536,1.011-1.618,0.475-2.417c-0.536-0.799-1.618-1.011-2.417-0.475l-113.656,76.298
					c-0.799,0.536-1.011,1.618-0.475,2.417S379.265,150.699,380.063,150.163z"/>
			</g>
		</g>
	</g>
	<g>
		<defs>
			<rect id="SVGID_00000081613635069860894040000015354055024388873121_" width="750" height="500"/>
		</defs>
		<clipPath id="SVGID_00000171679120803514265330000013285607843886031745_">
			<use xlink:href="#SVGID_00000081613635069860894040000015354055024388873121_"  style="overflow:visible;"/>
		</clipPath>
		<g style="clip-path:url(#SVGID_00000171679120803514265330000013285607843886031745_);">
			<path style="fill:#78CEF9;" d="M505.416,374.388L505.416,374.388c-4.602-6.854-13.888-8.681-20.743-4.079l-63.768,42.808
				c-6.854,4.602-8.681,13.888-4.079,20.743h0c4.602,6.855,13.888,8.681,20.743,4.079l63.768-42.808
				C508.191,390.529,510.017,381.242,505.416,374.388z"/>
			<path style="fill:#FF92B9;" d="M405.366,375.191c-1.729-2.576-5.219-3.262-7.794-1.533l-20.085,13.483
				c-2.576,1.729-3.262,5.219-1.533,7.794l0,0c1.729,2.576,5.219,3.262,7.794,1.533l20.085-13.483
				C406.408,381.257,407.095,377.767,405.366,375.191z"/>
			<path style="fill:#FF92B9;" d="M668.491,140.631c-1.729-2.576-5.219-3.262-7.794-1.533l-20.085,13.483
				c-2.576,1.729-3.262,5.219-1.533,7.794v0c1.729,2.576,5.219,3.262,7.794,1.533l20.085-13.483
				C669.533,146.697,670.22,143.207,668.491,140.631z"/>
			<path style="fill:#FF92B9;" d="M286.503,103.014c-1.729-2.576-5.219-3.262-7.794-1.533l-20.085,13.483
				c-2.576,1.729-3.262,5.219-1.533,7.794v0c1.729,2.576,5.219,3.262,7.794,1.533l20.085-13.483
				C287.546,109.08,288.232,105.59,286.503,103.014z"/>
			<path style="fill:#FF92B9;" d="M121.852,392.721c-1.729-2.576-5.219-3.262-7.794-1.533l-20.085,13.483
				c-2.576,1.729-3.262,5.219-1.533,7.794l0,0c1.729,2.576,5.219,3.262,7.794,1.533l20.085-13.483
				C122.895,398.786,123.581,395.297,121.852,392.721z"/>
			<path style="fill:#FF92B9;" d="M74.455,40.462c-1.729-2.576-5.219-3.262-7.794-1.533L46.576,52.412
				c-2.576,1.729-3.262,5.219-1.533,7.794v0c1.729,2.576,5.219,3.262,7.794,1.533l20.085-13.483
				C75.498,46.527,76.184,43.038,74.455,40.462z"/>
			<path style="fill:#FF92B9;" d="M607.275,490.128c-1.729-2.576-5.219-3.262-7.794-1.533l-20.085,13.483
				c-2.576,1.729-3.262,5.219-1.533,7.794v0c1.729,2.576,5.219,3.262,7.794,1.533l20.084-13.483
				C608.318,496.193,609.004,492.703,607.275,490.128z"/>
			<path style="fill:#78CEF9;" d="M787.479,8.239L787.479,8.239c-4.602-6.855-13.888-8.681-20.743-4.079l-63.768,42.808
				c-6.854,4.602-8.681,13.889-4.079,20.743l0,0c4.602,6.854,13.888,8.681,20.743,4.079L783.4,28.982
				C790.254,24.381,792.081,15.094,787.479,8.239z"/>
			<path style="fill:#78CEF9;" d="M719.162,494.428L719.162,494.428c-4.602-6.855-13.888-8.681-20.743-4.079l-63.768,42.808
				c-6.854,4.602-8.681,13.888-4.079,20.743l0,0c4.602,6.854,13.889,8.681,20.743,4.079l63.768-42.808
				C721.937,510.569,723.763,501.283,719.162,494.428z"/>
			<path style="fill:#78CEF9;" d="M19.597,60.213L19.597,60.213c-4.601-6.854-13.888-8.681-20.743-4.079l-63.768,42.808
				c-6.854,4.602-8.681,13.888-4.079,20.743v0c4.602,6.854,13.889,8.681,20.743,4.079l63.768-42.808
				C22.372,76.354,24.198,67.067,19.597,60.213z"/>
			<path style="fill:#78CEF9;" d="M436.076-24.036L436.076-24.036c-4.602-6.854-13.888-8.681-20.743-4.079l-63.768,42.808
				c-6.854,4.602-8.681,13.888-4.079,20.743l0,0c4.602,6.854,13.888,8.681,20.743,4.079l63.768-42.808
				C438.851-7.894,440.677-17.181,436.076-24.036z"/>
			<path style="fill:#78CEF9;" d="M74.945,367.687L74.945,367.687c-4.602-6.854-13.888-8.681-20.743-4.079l-63.768,42.808
				c-6.855,4.602-8.681,13.889-4.079,20.743l0,0c4.601,6.854,13.888,8.681,20.743,4.079l63.768-42.808
				C77.72,383.828,79.547,374.541,74.945,367.687z"/>
		</g>
		<g style="clip-path:url(#SVGID_00000171679120803514265330000013285607843886031745_);">
			<g>
				<polyline style="fill:none;stroke:#FF92B9;stroke-linecap:round;stroke-linejoin:round;stroke-miterlimit:10;" points="
					63.382,513.172 196.076,424.094 157.497,398.195 223.844,353.656 				"/>
			</g>
			<g>
				<polyline style="fill:none;stroke:#FF92B9;stroke-linecap:round;stroke-linejoin:round;stroke-miterlimit:10;" points="
					369.582,-18.413 275.769,44.565 303.044,62.874 256.138,94.363 				"/>
			</g>
			<g>
				<polyline style="fill:none;stroke:#FF92B9;stroke-linecap:round;stroke-linejoin:round;stroke-miterlimit:10;" points="
					664.493,234.746 720.462,197.173 693.188,178.863 740.094,147.374 				"/>
			</g>
			<g>
				<polyline style="fill:none;stroke:#FF92B9;stroke-linecap:round;stroke-linejoin:round;stroke-miterlimit:10;" points="
					-24.698,209.278 31.271,171.705 3.996,153.396 50.903,121.907 				"/>
			</g>
			
				<line style="fill:none;stroke:#FFFFFF;stroke-linecap:round;stroke-linejoin:round;stroke-miterlimit:10;" x1="30.65" y1="509.851" x2="120.168" y2="449.757"/>
			
				<line style="fill:none;stroke:#FFFFFF;stroke-linecap:round;stroke-linejoin:round;stroke-miterlimit:10;" x1="615.877" y1="437.023" x2="674.867" y2="397.423"/>
			
				<line style="fill:none;stroke:#FF92B9;stroke-linecap:round;stroke-linejoin:round;stroke-miterlimit:10;" x1="360.257" y1="513.172" x2="421.063" y2="472.352"/>
			
				<line style="fill:none;stroke:#FF92B9;stroke-linecap:round;stroke-linejoin:round;stroke-miterlimit:10;" x1="567.395" y1="48.18" x2="597.798" y2="27.77"/>
			
				<line style="fill:none;stroke:#FFFFFF;stroke-linecap:round;stroke-linejoin:round;stroke-miterlimit:10;" x1="234.324" y1="363.861" x2="264.727" y2="343.451"/>
			
				<line style="fill:none;stroke:#FFFFFF;stroke-linecap:round;stroke-linejoin:round;stroke-miterlimit:10;" x1="471.874" y1="361.751" x2="502.277" y2="341.341"/>
			
				<line style="fill:none;stroke:#FFFFFF;stroke-linecap:round;stroke-linejoin:round;stroke-miterlimit:10;" x1="91.486" y1="311.132" x2="137.246" y2="280.412"/>
			
				<line style="fill:none;stroke:#FFFFFF;stroke-linecap:round;stroke-linejoin:round;stroke-miterlimit:10;" x1="585.349" y1="21.06" x2="631.109" y2="-9.659"/>
			
				<line style="fill:none;stroke:#FFFFFF;stroke-linecap:round;stroke-linejoin:round;stroke-miterlimit:10;" x1="193.441" y1="114.773" x2="254.247" y2="73.953"/>
		</g>
		<g style="clip-path:url(#SVGID_00000171679120803514265330000013285607843886031745_);">
			<g>
				<path style="fill:#3A2366;" d="M221.819,254.849c2.026-1.36,2.566-4.105,1.206-6.13c-1.36-2.026-4.105-2.566-6.131-1.206
					c-2.026,1.36-2.566,4.105-1.206,6.13C217.049,255.669,219.794,256.209,221.819,254.849z"/>
				<path style="fill:#3A2366;" d="M206.448,265.168c2.026-1.36,2.566-4.105,1.206-6.13c-1.36-2.026-4.105-2.566-6.13-1.206
					c-2.026,1.36-2.566,4.105-1.206,6.13C201.677,265.989,204.422,266.529,206.448,265.168z"/>
				<path style="fill:#3A2366;" d="M191.076,275.488c2.026-1.36,2.566-4.105,1.206-6.13c-1.36-2.026-4.105-2.565-6.13-1.206
					c-2.026,1.36-2.566,4.105-1.206,6.13C186.305,276.308,189.05,276.848,191.076,275.488z"/>
				<path style="fill:#3A2366;" d="M170.779,278.471c-2.026,1.36-2.566,4.105-1.206,6.13s4.105,2.566,6.13,1.206
					c2.026-1.36,2.566-4.105,1.206-6.13C175.55,277.651,172.805,277.111,170.779,278.471z"/>
				<path style="fill:#3A2366;" d="M212.473,240.926c2.026-1.36,2.566-4.105,1.206-6.13c-1.36-2.026-4.105-2.566-6.13-1.206
					c-2.026,1.36-2.566,4.105-1.206,6.13C207.702,241.746,210.447,242.286,212.473,240.926z"/>
				<path style="fill:#3A2366;" d="M197.101,251.246c2.026-1.36,2.565-4.105,1.206-6.131c-1.36-2.026-4.105-2.566-6.13-1.206
					c-2.026,1.36-2.566,4.105-1.206,6.13C192.33,252.066,195.075,252.606,197.101,251.246z"/>
				<path style="fill:#3A2366;" d="M181.729,261.565c2.026-1.36,2.566-4.105,1.206-6.131c-1.36-2.026-4.105-2.566-6.13-1.206
					c-2.026,1.36-2.566,4.105-1.206,6.131C176.959,262.385,179.703,262.925,181.729,261.565z"/>
				<path style="fill:#3A2366;" d="M166.357,271.884c2.026-1.36,2.566-4.105,1.206-6.131c-1.36-2.026-4.105-2.565-6.131-1.206
					c-2.026,1.36-2.566,4.105-1.206,6.13C161.587,272.704,164.331,273.244,166.357,271.884z"/>
			</g>
			<g>
				<path style="fill:#3A2366;" d="M570.784,257.466c2.026-1.36,2.566-4.105,1.206-6.13c-1.36-2.026-4.105-2.566-6.13-1.206
					c-2.026,1.36-2.566,4.105-1.206,6.13C566.013,258.286,568.758,258.826,570.784,257.466z"/>
				<path style="fill:#3A2366;" d="M555.412,267.785c2.026-1.36,2.566-4.105,1.206-6.13c-1.36-2.026-4.105-2.566-6.13-1.206
					c-2.026,1.36-2.566,4.105-1.206,6.13C550.641,268.605,553.386,269.145,555.412,267.785z"/>
				<path style="fill:#3A2366;" d="M540.04,278.104c2.026-1.36,2.566-4.105,1.206-6.13c-1.36-2.026-4.105-2.566-6.13-1.206
					c-2.026,1.36-2.566,4.105-1.206,6.13C535.269,278.925,538.014,279.464,540.04,278.104z"/>
				<path style="fill:#3A2366;" d="M519.743,281.088c-2.026,1.36-2.565,4.105-1.206,6.13c1.36,2.026,4.105,2.566,6.13,1.206
					c2.026-1.36,2.566-4.105,1.206-6.13C524.514,280.267,521.769,279.728,519.743,281.088z"/>
				<path style="fill:#3A2366;" d="M561.437,243.543c2.026-1.36,2.566-4.105,1.206-6.13c-1.36-2.026-4.105-2.566-6.13-1.206
					c-2.026,1.36-2.566,4.105-1.206,6.13C556.667,244.363,559.411,244.903,561.437,243.543z"/>
				<path style="fill:#3A2366;" d="M546.065,253.862c2.026-1.36,2.566-4.105,1.206-6.13c-1.36-2.026-4.105-2.566-6.131-1.206
					c-2.026,1.36-2.566,4.105-1.206,6.13C541.295,254.682,544.039,255.222,546.065,253.862z"/>
				<path style="fill:#3A2366;" d="M530.693,264.181c2.026-1.36,2.566-4.105,1.206-6.13c-1.36-2.026-4.105-2.565-6.13-1.206
					c-2.026,1.36-2.566,4.105-1.206,6.13C525.923,265.002,528.667,265.542,530.693,264.181z"/>
				<path style="fill:#3A2366;" d="M515.321,274.501c2.026-1.36,2.566-4.105,1.206-6.131c-1.36-2.026-4.105-2.565-6.131-1.206
					c-2.026,1.36-2.566,4.105-1.206,6.13C510.551,275.321,513.296,275.861,515.321,274.501z"/>
			</g>
			<g>
				<path style="fill:#3A2366;" d="M497.028,1.756c2.026-1.36,2.566-4.105,1.206-6.131c-1.36-2.026-4.105-2.566-6.131-1.206
					c-2.026,1.36-2.566,4.105-1.206,6.13C492.258,2.576,495.003,3.116,497.028,1.756z"/>
				<path style="fill:#3A2366;" d="M481.656,12.075c2.026-1.36,2.566-4.105,1.206-6.13c-1.36-2.026-4.105-2.566-6.13-1.206
					c-2.026,1.36-2.566,4.105-1.206,6.13C476.886,12.895,479.631,13.435,481.656,12.075z"/>
				<path style="fill:#3A2366;" d="M466.285,22.395c2.026-1.36,2.566-4.105,1.206-6.13c-1.36-2.026-4.105-2.566-6.13-1.206
					c-2.026,1.36-2.566,4.105-1.206,6.13C461.514,23.215,464.259,23.754,466.285,22.395z"/>
				<path style="fill:#3A2366;" d="M445.988,25.378c-2.026,1.36-2.566,4.105-1.206,6.13c1.36,2.026,4.105,2.566,6.13,1.206
					c2.026-1.36,2.566-4.105,1.206-6.131C450.758,24.558,448.014,24.018,445.988,25.378z"/>
				<path style="fill:#3A2366;" d="M487.682-12.167c2.026-1.36,2.566-4.105,1.206-6.131c-1.36-2.026-4.105-2.566-6.13-1.206
					c-2.026,1.36-2.566,4.105-1.206,6.13C482.911-11.347,485.656-10.807,487.682-12.167z"/>
				<path style="fill:#3A2366;" d="M472.31-1.848c2.026-1.36,2.566-4.105,1.206-6.13c-1.36-2.026-4.105-2.566-6.13-1.206
					c-2.026,1.36-2.566,4.105-1.206,6.13C467.539-1.028,470.284-0.488,472.31-1.848z"/>
				<path style="fill:#3A2366;" d="M456.938,8.472c2.026-1.36,2.566-4.105,1.206-6.13c-1.36-2.026-4.105-2.566-6.13-1.206
					c-2.026,1.36-2.566,4.105-1.206,6.13C452.167,9.292,454.912,9.832,456.938,8.472z"/>
				<path style="fill:#3A2366;" d="M441.566,18.791c2.026-1.36,2.566-4.105,1.206-6.131c-1.36-2.026-4.105-2.566-6.13-1.206
					c-2.026,1.36-2.566,4.105-1.206,6.131C436.796,19.611,439.54,20.151,441.566,18.791z"/>
			</g>
			<g>
				<path style="fill:#3A2366;" d="M98.163-2.343c2.026-1.36,2.566-4.105,1.206-6.131c-1.36-2.026-4.105-2.566-6.131-1.206
					s-2.566,4.105-1.206,6.13C93.392-1.523,96.137-0.983,98.163-2.343z"/>
				<path style="fill:#3A2366;" d="M82.791,7.976c2.026-1.36,2.566-4.105,1.206-6.13c-1.36-2.026-4.105-2.566-6.13-1.206
					C75.84,2,75.3,4.745,76.66,6.77C78.02,8.796,80.765,9.336,82.791,7.976z"/>
				<path style="fill:#3A2366;" d="M67.419,18.295c2.026-1.36,2.566-4.105,1.206-6.131c-1.36-2.026-4.105-2.566-6.13-1.206
					c-2.026,1.36-2.566,4.105-1.206,6.13C62.648,19.116,65.393,19.655,67.419,18.295z"/>
				<path style="fill:#3A2366;" d="M47.122,21.279c-2.026,1.36-2.566,4.105-1.206,6.13s4.105,2.566,6.131,1.206
					c2.026-1.36,2.566-4.105,1.206-6.131C51.893,20.458,49.148,19.919,47.122,21.279z"/>
				<path style="fill:#3A2366;" d="M88.816-16.266c2.026-1.36,2.566-4.105,1.206-6.131c-1.36-2.026-4.105-2.566-6.131-1.206
					c-2.026,1.36-2.565,4.105-1.206,6.131C84.046-15.446,86.79-14.906,88.816-16.266z"/>
				<path style="fill:#3A2366;" d="M73.444-5.947c2.026-1.36,2.565-4.105,1.206-6.13c-1.36-2.026-4.105-2.566-6.131-1.206
					c-2.026,1.36-2.566,4.105-1.206,6.13C68.674-5.127,71.418-4.587,73.444-5.947z"/>
				<path style="fill:#3A2366;" d="M58.072,4.372c2.026-1.36,2.566-4.105,1.206-6.13c-1.36-2.026-4.105-2.566-6.13-1.206
					c-2.026,1.36-2.566,4.105-1.206,6.13C53.302,5.193,56.047,5.732,58.072,4.372z"/>
				<path style="fill:#3A2366;" d="M42.7,14.692c2.026-1.36,2.566-4.105,1.206-6.13c-1.36-2.026-4.105-2.566-6.131-1.206
					c-2.026,1.36-2.566,4.105-1.206,6.13C37.93,15.512,40.675,16.052,42.7,14.692z"/>
			</g>
			<g>
				<path style="fill:#3A2366;" d="M30.194,468.586c2.026-1.36,2.566-4.105,1.206-6.131c-1.36-2.026-4.105-2.566-6.13-1.206
					c-2.026,1.36-2.566,4.105-1.206,6.13C25.423,469.406,28.168,469.946,30.194,468.586z"/>
				<path style="fill:#3A2366;" d="M14.822,478.906c2.026-1.36,2.566-4.105,1.206-6.13c-1.36-2.026-4.105-2.566-6.13-1.206
					c-2.026,1.36-2.566,4.105-1.206,6.131C10.051,479.726,12.796,480.266,14.822,478.906z"/>
				<path style="fill:#3A2366;" d="M-0.55,489.225c2.026-1.36,2.566-4.105,1.206-6.13c-1.36-2.026-4.105-2.566-6.13-1.206
					c-2.026,1.36-2.566,4.105-1.206,6.13C-5.321,490.045-2.576,490.585-0.55,489.225z"/>
				<path style="fill:#3A2366;" d="M-20.847,492.208c-2.026,1.36-2.566,4.105-1.206,6.131c1.36,2.026,4.105,2.566,6.13,1.206
					c2.026-1.36,2.566-4.105,1.206-6.131C-16.076,491.388-18.821,490.848-20.847,492.208z"/>
				<path style="fill:#3A2366;" d="M20.847,454.663c2.026-1.36,2.566-4.105,1.206-6.13c-1.36-2.026-4.105-2.566-6.13-1.206
					c-2.026,1.36-2.566,4.105-1.206,6.13C16.076,455.484,18.821,456.023,20.847,454.663z"/>
				<path style="fill:#3A2366;" d="M5.475,464.983c2.026-1.36,2.566-4.105,1.206-6.13c-1.36-2.026-4.105-2.566-6.13-1.206
					c-2.026,1.36-2.566,4.105-1.206,6.13C0.705,465.803,3.449,466.343,5.475,464.983z"/>
				<path style="fill:#3A2366;" d="M-9.897,475.302c2.026-1.36,2.566-4.105,1.206-6.13c-1.36-2.026-4.105-2.566-6.13-1.206
					c-2.026,1.36-2.566,4.105-1.206,6.13C-14.667,476.122-11.923,476.662-9.897,475.302z"/>
				<path style="fill:#3A2366;" d="M-25.269,485.621c2.026-1.36,2.566-4.105,1.206-6.13c-1.36-2.026-4.105-2.566-6.131-1.206
					c-2.026,1.36-2.566,4.105-1.206,6.13C-30.039,486.442-27.295,486.981-25.269,485.621z"/>
			</g>
			<g>
				<path style="fill:#3A2366;" d="M720.496-0.861c2.026-1.36,2.566-4.105,1.206-6.131c-1.36-2.026-4.105-2.566-6.13-1.206
					c-2.026,1.36-2.566,4.105-1.206,6.13C715.726-0.041,718.471,0.499,720.496-0.861z"/>
				<path style="fill:#3A2366;" d="M705.125,9.459c2.026-1.36,2.565-4.105,1.206-6.13c-1.36-2.026-4.105-2.566-6.13-1.206
					c-2.026,1.36-2.566,4.105-1.206,6.13C700.354,10.279,703.099,10.819,705.125,9.459z"/>
				<path style="fill:#3A2366;" d="M689.753,19.778c2.026-1.36,2.566-4.105,1.206-6.131c-1.36-2.026-4.105-2.566-6.13-1.206
					c-2.026,1.36-2.566,4.105-1.206,6.13C684.982,20.598,687.727,21.138,689.753,19.778z"/>
				<path style="fill:#3A2366;" d="M669.456,22.761c-2.026,1.36-2.566,4.105-1.206,6.13c1.36,2.026,4.105,2.566,6.13,1.206
					c2.026-1.36,2.566-4.105,1.206-6.131C674.227,21.941,671.482,21.401,669.456,22.761z"/>
				<path style="fill:#3A2366;" d="M711.15-14.784c2.026-1.36,2.566-4.105,1.206-6.131c-1.36-2.026-4.105-2.566-6.13-1.206
					c-2.026,1.36-2.566,4.105-1.206,6.13C706.379-13.964,709.124-13.424,711.15-14.784z"/>
				<path style="fill:#3A2366;" d="M695.778-4.464c2.026-1.36,2.566-4.105,1.206-6.13c-1.36-2.026-4.105-2.566-6.13-1.206
					c-2.026,1.36-2.566,4.105-1.206,6.13C691.008-3.644,693.752-3.104,695.778-4.464z"/>
				<path style="fill:#3A2366;" d="M680.406,5.855c2.026-1.36,2.565-4.105,1.206-6.13c-1.36-2.026-4.105-2.566-6.13-1.206
					c-2.026,1.36-2.566,4.105-1.206,6.13C675.636,6.675,678.38,7.215,680.406,5.855z"/>
				<path style="fill:#3A2366;" d="M665.034,16.174c2.026-1.36,2.566-4.105,1.206-6.131c-1.36-2.026-4.105-2.566-6.13-1.206
					c-2.026,1.36-2.566,4.105-1.206,6.13C660.264,16.994,663.008,17.534,665.034,16.174z"/>
			</g>
			<g>
				<path style="fill:#3A2366;" d="M491.574,491.027c2.026-1.36,2.566-4.105,1.206-6.13c-1.36-2.026-4.105-2.566-6.13-1.206
					c-2.026,1.36-2.566,4.105-1.206,6.13C486.803,491.847,489.548,492.387,491.574,491.027z"/>
				<path style="fill:#3A2366;" d="M476.202,501.346c2.026-1.36,2.566-4.105,1.206-6.13c-1.36-2.026-4.105-2.566-6.13-1.206
					c-2.026,1.36-2.566,4.105-1.206,6.13C471.431,502.166,474.176,502.706,476.202,501.346z"/>
				<path style="fill:#3A2366;" d="M460.83,511.665c2.026-1.36,2.566-4.105,1.206-6.13c-1.36-2.026-4.105-2.566-6.13-1.206
					c-2.026,1.36-2.566,4.105-1.206,6.13C456.06,512.486,458.804,513.025,460.83,511.665z"/>
				<path style="fill:#3A2366;" d="M440.533,514.649c-2.026,1.36-2.565,4.105-1.206,6.13c1.36,2.026,4.105,2.566,6.13,1.206
					c2.026-1.36,2.566-4.105,1.206-6.13C445.304,513.828,442.559,513.289,440.533,514.649z"/>
				<path style="fill:#3A2366;" d="M482.227,477.104c2.026-1.36,2.566-4.105,1.206-6.131c-1.36-2.026-4.105-2.566-6.13-1.206
					c-2.026,1.36-2.566,4.105-1.206,6.13C477.457,477.924,480.201,478.464,482.227,477.104z"/>
				<path style="fill:#3A2366;" d="M466.855,487.423c2.026-1.36,2.566-4.105,1.206-6.13c-1.36-2.026-4.105-2.566-6.131-1.206
					c-2.026,1.36-2.566,4.105-1.206,6.13C462.085,488.243,464.829,488.783,466.855,487.423z"/>
				<path style="fill:#3A2366;" d="M451.483,497.742c2.026-1.36,2.566-4.105,1.206-6.13c-1.36-2.026-4.105-2.565-6.13-1.206
					c-2.026,1.36-2.566,4.105-1.206,6.13C446.713,498.563,449.458,499.103,451.483,497.742z"/>
				<path style="fill:#3A2366;" d="M436.112,508.062c2.026-1.36,2.566-4.105,1.206-6.13c-1.36-2.026-4.105-2.566-6.13-1.206
					c-2.026,1.36-2.566,4.105-1.206,6.13C431.341,508.882,434.086,509.422,436.112,508.062z"/>
			</g>
		</g>
	</g>
</g>
</svg>
